<svg width="368" height="263" viewBox="0 0 368 263" fill="none" xmlns="http://www.w3.org/2000/svg">
    <mask id="mask0_11_193" style="mask-type:alpha" maskUnits="userSpaceOnUse" x="0" y="0" width="368" height="263">
        <rect width="368" height="263" fill="white"/>
    </mask>
    <g mask="url(#mask0_11_193)">
        <mask id="mask1_11_193" style="mask-type:alpha" maskUnits="userSpaceOnUse" x="-44" y="0" width="412" height="239">
            <rect x="-44" width="412" height="239" fill="url(#paint0_radial_11_193)"/>
        </mask>
        <g mask="url(#mask1_11_193)">
            <rect x="9" y="-1" width="60" height="60" stroke="white" stroke-opacity="0.07"/>
            <rect x="69" y="-1" width="60" height="60" stroke="white" stroke-opacity="0.07"/>
            <rect x="9" y="59" width="60" height="60" stroke="white" stroke-opacity="0.07"/>
            <rect x="69" y="59" width="60" height="60" stroke="white" stroke-opacity="0.07"/>
            <rect x="9" y="119" width="60" height="60" stroke="white" stroke-opacity="0.07"/>
            <rect x="69" y="119" width="60" height="60" stroke="white" stroke-opacity="0.07"/>
            <rect x="9" y="179" width="60" height="60" stroke="white" stroke-opacity="0.07"/>
            <rect x="69" y="179" width="60" height="60" stroke="white" stroke-opacity="0.07"/>
            <rect x="129" y="-1" width="60" height="60" stroke="white" stroke-opacity="0.07"/>
            <rect x="189" y="-1" width="60" height="60" stroke="white" stroke-opacity="0.07"/>
            <rect x="189" y="119" width="60" height="60" stroke="white" stroke-opacity="0.07"/>
            <rect x="129" y="59" width="60" height="60" stroke="white" stroke-opacity="0.07"/>
            <rect x="189" y="59" width="60" height="60" stroke="white" stroke-opacity="0.07"/>
            <rect x="249" y="-1" width="60" height="60" stroke="white" stroke-opacity="0.07"/>
            <rect x="309" y="-1" width="60" height="60" stroke="white" stroke-opacity="0.07"/>
            <rect x="249" y="59" width="60" height="60" stroke="white" stroke-opacity="0.07"/>
            <rect x="309" y="59" width="60" height="60" stroke="white" stroke-opacity="0.07"/>
            <rect x="129" y="119" width="60" height="60" stroke="white" stroke-opacity="0.07"/>
            <rect x="129" y="179" width="60" height="60" stroke="white" stroke-opacity="0.07"/>
            <rect x="189" y="179" width="60" height="60" stroke="white" stroke-opacity="0.07"/>
            <rect x="249" y="119" width="60" height="60" stroke="white" stroke-opacity="0.07"/>
            <rect x="309" y="119" width="60" height="60" stroke="white" stroke-opacity="0.07"/>
            <rect x="249" y="179" width="60" height="60" stroke="white" stroke-opacity="0.07"/>
            <rect x="309" y="179" width="60" height="60" stroke="white" stroke-opacity="0.07"/>
        </g>
    </g>
    <defs>
        <radialGradient id="paint0_radial_11_193" cx="0" cy="0" r="1" gradientUnits="userSpaceOnUse" gradientTransform="translate(368) rotate(149.518) scale(259.622 366.831)">
            <stop stop-color="#D9D9D9"/>
            <stop offset="1" stop-color="#D9D9D9" stop-opacity="0"/>
        </radialGradient>
    </defs>
</svg>
